:SAMPLES-PER-SECOND 30
:FRAME-RANGE 1-1700
:FULLY-SPECIFIED
:DEGREES
1222
root  -5.23986 39.5337 -36.9328 174.734 -77.6607 -175.558
RightUpLeg  -17.8436 6.09908 -6.07809
RightLeg  29.7841 -10.9492 -6.92726
RightFoot  -4.52863 -0.591931 9.40481
RightToes  -1.16417e-010 0 -3.6325e-017
Spine  14.5382 -0.0583659 1.68028
Spine1  -1.99084 1.40216 -6.95997
HEad  -6.64083 62.941 -21.1807
LeftShoulder1  1.88004 -1.52206 -31.3704
LeftArm  35.5538 -16.6355 -42.862
LeftForeArm  -3.42112 -13.4582 -14.168
LeftHand  0.218329 -0.651456 -4.15396
RightShoulder  9.79052 16.2455 43.204
RightArm  32.3759 -0.00392282 21.4851
RightForeArm  0.489169 24.0099 5.11014
RightHand  0.352773 2.14511 5.2596
LeftUpLeg  -10.3688 9.34526 -3.38643
LeftLeg  17.6826 -0.86604 -1.57795
LeftFoot  -5.67869 -0.291256 6.57448
LeftToes  1.03528e-008 1.55373e-010 -2.26046e-010
1223
root  -5.71008 39.4816 -37.8311 169.184 -83.4962 -169.771
RightUpLeg  -16.2624 18.021 -8.88361
RightLeg  17.6357 -9.92991 -3.71736
RightFoot  -6.06961 -0.520368 10.3764
RightToes  -1.16417e-010 0 -3.6325e-017
Spine  14.9747 -0.592998 2.34786
Spine1  -1.70887 0.866328 -6.22014
HEad  -8.00128 61.3889 -22.4495
LeftShoulder1  2.04969 -1.95375 -31.5257
LeftArm  40.5572 -19.8666 -46.5495
LeftForeArm  -4.06645 -13.2139 -14.6038
LeftHand  0.197376 -0.525864 -3.84351
RightShoulder  9.81774 16.461 42.8311
RightArm  31.1609 0.797789 21.9022
RightForeArm  2.37938 24.9631 5.22449
RightHand  0.305216 1.90762 4.69671
LeftUpLeg  -11.0574 10.1416 -2.50442
LeftLeg  20.266 -7.40151 -2.92572
LeftFoot  -6.69419 -0.191148 5.70078
LeftToes  1.03528e-008 1.55373e-010 -2.26046e-010
1224
root  -6.11035 39.1384 -38.8031 80.7622 -88.1282 -81.5802
RightUpLeg  -15.6056 19.7415 -7.91887
RightLeg  13.5796 3.00002 -2.49438
RightFoot  -7.4261 -0.476761 12.4192
RightToes  -1.16417e-010 0 -3.6325e-017
Spine  16.4943 -1.17117 3.71237
Spine1  -1.54473 0.204333 -4.81597
HEad  -9.11733 58.5622 -23.2703
LeftShoulder1  2.26491 -2.54798 -31.4
LeftArm  45.0826 -23.6242 -50.4644
LeftForeArm  -5.68227 -12.3507 -15.5509
LeftHand  0.169334 -0.362945 -3.40268
RightShoulder  10.1681 17.2932 42.5553
RightArm  30.1561 1.74655 22.3906
RightForeArm  3.35749 25.3926 5.26983
RightHand  0.279642 1.61572 4.49686
LeftUpLeg  -14.2482 9.49086 -0.355407
LeftLeg  28.1545 -12.0357 -6.56848
LeftFoot  -8.11162 -0.0878921 4.84793
LeftToes  1.03528e-008 1.55373e-010 -2.26046e-010
1225
root  -6.42985 38.5234 -39.8345 23 -81.7128 -24.1533
RightUpLeg  -17.364 19.3556 -6.11074
RightLeg  18.9422 3.45615 -0.590062
RightFoot  -5.81905 -0.688172 13.3871
RightToes  -1.16417e-010 0 -3.6325e-017
Spine  18.2206 -1.70833 5.95145
Spine1  -1.38651 -0.480081 -2.59061
HEad  -9.72239 54.5478 -22.5446
LeftShoulder1  2.47145 -3.34852 -30.0353
LeftArm  52.8953 -28.1995 -55.8431
LeftForeArm  -9.82626 -11.5001 -16.6772
LeftHand  0.138778 -0.17594 -2.89835
RightShoulder  10.8032 18.6572 42.3986
RightArm  29.458 3.0719 22.5878
RightForeArm  3.06337 25.6509 5.34354
RightHand  0.2984 1.61557 4.80801
LeftUpLeg  -22.1554 9.55998 2.78667
LeftLeg  42.9277 -14.0844 -13.278
LeftFoot  -5.29289 -0.0420317 1.39923
LeftToes  1.03528e-008 1.55373e-010 -2.26046e-010
1226
root  -6.6649 37.7895 -40.9258 20.1866 -73.8528 -22.6648
RightUpLeg  -18.9448 13.8412 -2.20512
RightLeg  27.2861 1.23971 0.449503
RightFoot  -10.0146 -0.215553 12.668
RightToes  -1.16417e-010 0 -3.6325e-017
Spine  20.212 -2.2886 9.37102
Spine1  -1.01592 -0.993885 -0.35223
HEad  -11.5184 49.6659 -21.7812
LeftShoulder1  2.68905 -4.2825 -28.4801
LeftArm  66.2816 -33.6617 -62.079
LeftForeArm  -18.7488 -13.3049 -16.2328
LeftHand  0.109306 0.535692 -2.71386
RightShoulder  11.5357 20.5393 41.6423
RightArm  28.5642 4.87127 23.169
RightForeArm  4.14751 25.5231 5.2577
RightHand  0.372413 2.13047 5.57407
LeftUpLeg  -31.9525 11.4894 6.78657
LeftLeg  56.8139 -11.7941 -18.2087
LeftFoot  3.49138 1.29758 -10.1127
LeftToes  1.03528e-008 1.55373e-010 -2.26046e-010
1227
root  -6.86592 37.2217 -41.9704 21.8539 -68.7535 -25.9435
RightUpLeg  -19.5606 6.7467 2.62958
RightLeg  32.1515 3.32667 1.98533
RightFoot  -12.2476 0.000337423 10.5593
RightToes  -1.16417e-010 0 -3.6325e-017
Spine  22.5615 -2.23788 12.5422
Spine1  -0.0814498 -0.588635 0.604255
HEad  -15.7128 45.489 -22.8644
LeftShoulder1  2.82196 -4.78422 -27.9833
LeftArm  70.103 -40.1493 -67.6228
LeftForeArm  -16.5674 -14.3268 -15.3522
LeftHand  0.0458186 1.52037 -1.65104
RightShoulder  12.6056 22.9208 41.3292
RightArm  29.4094 8.75068 23.3248
RightForeArm  3.01522 23.7903 4.93219
RightHand  0.346468 2.09256 5.20357
LeftUpLeg  -40.908 16.8618 8.35828
LeftLeg  64.9888 -7.49266 -16.4692
LeftFoot  6.88201 1.64119 -10.473
LeftToes  1.03528e-008 1.55373e-010 -2.26046e-010
1228
root  -7.13777 37.2165 -43.0636 20.2765 -66.0143 -23.8094
RightUpLeg  -20.557 5.27474 4.61904
RightLeg  32.9856 1.84698 1.01936
RightFoot  -12.4354 0.00229819 9.08305
RightToes  -1.16417e-010 0 -3.6325e-017
Spine  24.1626 -1.31143 11.0612
Spine1  0.946332 -0.312952 1.16392
HEad  -21.5352 42.4992 -24.5395
LeftShoulder1  2.92965 -5.33498 -27.0548
LeftArm  61.7866 -45.3672 -71.4933
LeftForeArm  -6.36786 -11.3679 -16.7978
LeftHand  0.0158173 2.13989 -1.00387
RightShoulder  14.2831 25.8744 42.1059
RightArm  26.1337 14.0046 23.1189
RightForeArm  5.37008 19.6891 6.89008
RightHand  0.319707 2.01363 4.84689
LeftUpLeg  -51.7636 24.4727 2.65858
LeftLeg  69.5375 -3.96242 -10.9116
LeftFoot  6.78383 1.29864 -8.39093
LeftToes  1.03528e-008 1.55373e-010 -2.26046e-010
1229
root  -7.41637 37.5105 -44.0816 17.968 -63.1329 -19.6145
RightUpLeg  -21.62 5.34192 5.2574
RightLeg  31.4702 -1.10338 -0.993045
RightFoot  -11.6166 -0.0592576 8.21018
RightToes  -1.16417e-010 0 -3.6325e-017
Spine  25.4394 -0.618386 8.33165
Spine1  1.68963 -0.66268 1.41757
HEad  -27.1185 39.701 -26.1336
LeftShoulder1  3.00817 -5.9804 -25.5751
LeftArm  63.2644 -48.9451 -75.1521
LeftForeArm  -6.03698 -11.2615 -16.8424
LeftHand  -0.0133763 2.67893 -0.0529964
RightShoulder  15.8778 28.9815 42.2473
RightArm  14.4039 18.6786 22.7794
RightForeArm  15.4709 14.4061 10.5404
RightHand  0.37142 2.45928 5.29733
LeftUpLeg  -64.462 29.405 -8.89543
LeftLeg  72.4805 -1.78634 -5.44644
LeftFoot  6.98014 1.51451 -9.63932
LeftToes  1.03528e-008 1.55373e-010 -2.26046e-010
1230
root  -7.7359 37.8853 -44.932 17.1247 -59.7115 -16.2216
RightUpLeg  -22.6634 4.29053 5.69134
RightLeg  28.8379 -3.35476 -2.25254
RightFoot  -11.2991 -0.0799982 8.47042
RightToes  -1.16417e-010 0 -3.6325e-017
Spine  26.689 -0.11488 6.34838
Spine1  1.53416 -1.22174 1.72172
HEad  -30.5584 36.817 -26.6551
LeftShoulder1  3.10621 -6.65705 -24.3768
LeftArm  63.316 -52.4729 -79.6108
LeftForeArm  -1.20498 -10.4128 -17.0654
LeftHand  -0.0256141 3.31024 0.443489
RightShoulder  16.5251 31.2225 40.9518
RightArm  5.73096 21.8937 23.0664
RightForeArm  22.2447 11.1486 11.8963
RightHand  0.419639 3.12955 5.48326
LeftUpLeg  -76.9883 30.211 -22.4912
LeftLeg  75.9464 -1.28024 -4.74126
LeftFoot  7.50301 2.11208 -12.9597
LeftToes  1.03528e-008 1.55373e-010 -2.26046e-010
1231
root  -8.08067 38.2502 -45.6618 17.3499 -56.7318 -14.0028
RightUpLeg  -23.181 2.14675 6.25661
RightLeg  25.4718 -3.6166 -2.10091
RightFoot  -11.9495 -0.0292101 9.79945
RightToes  -1.16417e-010 0 -3.6325e-017
Spine  27.8788 0.482287 4.95504
Spine1  1.32096 -1.39269 1.65389
HEad  -32.3478 34.3678 -26.3637
LeftShoulder1  3.21474 -7.37451 -23.3058
LeftArm  56.913 -55.0801 -84.1344
LeftForeArm  6.29479 -7.5215 -17.9919
LeftHand  -0.0321452 4.03969 0.943868
RightShoulder  16.4339 32.3411 39.2549
RightArm  5.76003 24.0505 23.4469
RightForeArm  20.7523 11.7233 11.6605
RightHand  0.431408 3.37868 5.4638
LeftUpLeg  -87.531 28.8658 -35.6368
LeftLeg  80.8674 -1.05317 -6.2924
LeftFoot  6.76038 2.56289 -16.2568
LeftToes  1.03528e-008 1.55373e-010 -2.26046e-010
